<svg version="1.1" id="Layer_1" xmlns="http://www.w3.org/2000/svg" xmlns:xlink="http://www.w3.org/1999/xlink" x="0px" y="0px"
	 width="100%" viewBox="0 0 1024 672" enable-background="new 0 0 1024 672" xml:space="preserve">
<path fill="#111111" opacity="1.000000" stroke="none" 
	d="
M284.000000,1.000000 
	C445.022614,1.000000 606.045227,1.000000 767.359497,1.238682 
	C766.428406,5.971731 769.838989,9.936856 768.987427,14.504190 
	C768.187988,18.792356 770.427612,21.794540 773.705994,24.746492 
	C782.075745,32.282909 791.224609,38.807499 798.367310,47.926628 
	C811.199280,64.309563 822.557190,81.812279 836.361389,97.455734 
	C842.967224,104.941757 850.007385,112.038002 856.118103,119.985779 
	C862.747009,128.607468 867.453125,138.459747 873.882690,147.152191 
	C891.976196,171.613968 909.023926,196.908722 930.221130,218.942032 
	C932.416443,221.223877 934.437195,223.700409 935.206238,226.902267 
	C937.245911,235.394440 938.550110,243.953934 936.304565,252.596344 
	C934.066528,261.209930 933.640686,270.022461 932.989197,278.822113 
	C932.081299,291.085358 931.563965,303.335297 931.405518,315.654266 
	C931.278442,325.533417 932.035461,334.839569 935.177185,344.070374 
	C936.250549,347.224274 937.373230,350.362305 938.390442,353.534210 
	C944.785889,373.476196 943.283752,392.570465 932.480957,410.783936 
	C929.259460,416.215332 926.471863,421.912384 923.642944,427.566498 
	C918.541626,437.762756 912.731995,447.526062 903.933105,454.937683 
	C891.592346,465.332672 878.477539,474.839966 866.489502,485.612488 
	C856.617859,494.483215 847.658508,504.420868 838.750366,514.296570 
	C830.961731,522.931213 824.059631,532.363037 816.316284,541.041504 
	C803.660095,555.226013 786.848450,564.107361 771.612366,574.974426 
	C768.415039,577.254883 766.390259,580.517883 763.274048,582.779175 
	C754.249268,589.328003 745.500244,596.261047 737.416199,603.933044 
	C724.795410,615.910583 710.691223,625.655579 693.922424,630.338135 
	C680.848572,633.988953 668.997620,640.403259 656.298462,644.846924 
	C643.302795,649.394287 630.793518,655.029297 617.268799,658.412781 
	C604.136169,661.698242 589.643372,661.967041 578.571289,671.795166 
	C579.804993,672.228699 580.902466,672.614380 582.000000,673.000000 
	C499.310699,673.000000 416.621368,673.000000 333.656769,672.885925 
	C333.842255,672.379639 334.965759,671.717285 334.544281,671.529236 
	C329.357483,669.215637 325.479034,664.962036 320.308594,662.503174 
	C306.638733,656.002380 292.407593,650.743408 279.320557,642.885010 
	C273.227814,639.226501 267.842834,634.294922 261.006836,631.884277 
	C253.631897,629.283691 246.288681,626.581116 238.849136,624.178467 
	C226.684570,620.249939 216.428146,613.394531 207.507309,604.380310 
	C201.655228,598.466858 196.205154,592.080200 189.882828,586.722229 
	C173.138779,572.532288 158.707886,556.279175 145.559753,538.815796 
	C139.258179,530.445984 133.301422,521.815247 126.947334,513.486633 
	C110.043282,491.329620 97.564682,467.838348 98.617325,438.592804 
	C99.340080,418.512482 95.547958,398.770905 88.188576,379.897705 
	C86.592445,375.804413 85.609077,371.606140 85.910202,367.208252 
	C86.817482,353.957489 86.048531,340.523254 90.264328,327.624420 
	C90.772362,326.070007 91.068947,324.310913 90.916153,322.698547 
	C90.048798,313.545685 91.969154,304.786987 94.448189,296.103882 
	C98.609016,281.530151 100.645020,266.809143 98.126099,251.669754 
	C97.633850,248.711212 98.346428,245.715347 98.828766,242.740326 
	C100.363068,233.276779 104.130295,224.686172 107.970184,215.957321 
	C114.016235,202.213379 121.061447,189.586853 132.981277,179.865585 
	C139.392624,174.636765 146.105164,169.723068 151.763092,163.458618 
	C162.523880,151.544296 167.927597,136.792374 174.923355,122.825600 
	C178.932724,114.821030 181.787018,106.071831 187.545059,99.113670 
	C193.592453,91.805870 200.048965,84.840706 205.476608,77.027519 
	C207.103683,74.685326 209.284378,72.893181 211.352356,70.950813 
	C217.060654,65.589264 224.487167,63.124538 230.884171,58.923828 
	C243.272980,50.788509 255.928955,43.059219 268.497528,35.198902 
	C274.975128,31.147848 282.070282,28.004450 287.313019,22.161896 
	C288.951538,20.335917 290.645874,18.143724 289.068298,15.952991 
	C286.610474,12.539850 286.704132,8.777825 286.474976,5.011998 
	C286.359650,3.116874 285.557251,1.885945 284.000000,1.000000 
M699.536682,171.977966 
	C694.511230,168.413315 689.590637,164.688995 684.443665,161.309509 
	C646.376160,136.314621 605.106689,119.136063 560.236511,110.941147 
	C541.865295,107.585892 523.252563,105.007568 504.634918,105.763260 
	C479.359375,106.789192 454.361664,110.282700 429.659546,116.583633 
	C387.321106,127.383179 349.143951,146.358368 314.409241,172.441666 
	C280.993652,197.534378 252.625153,227.571503 228.311157,261.587585 
	C216.779739,277.720459 204.231705,293.136688 187.529068,304.475067 
	C186.992615,304.839203 186.535248,305.385071 187.013901,306.805969 
	C192.778366,306.660706 198.017059,304.039429 203.188004,301.780853 
	C224.028595,292.678131 241.065094,278.265045 256.462494,261.935364 
	C274.065399,243.266647 291.167786,224.128250 310.857574,207.556961 
	C362.548981,164.052551 420.958496,136.051697 489.053711,130.581573 
	C523.734558,127.795662 557.547852,132.411942 590.481262,143.454086 
	C656.721313,165.663483 709.496948,207.022324 755.042786,258.857727 
	C771.988647,278.143707 791.610352,294.245758 815.620239,304.315002 
	C816.738770,304.784119 818.339111,304.857727 818.429688,306.684631 
	C816.750244,307.853088 814.865784,307.386108 813.090576,307.390259 
	C796.424805,307.429352 779.755859,307.611481 763.093872,307.356323 
	C749.713013,307.151398 736.575867,307.752808 723.648621,311.926270 
	C714.002625,315.040436 704.554443,313.792114 696.053589,307.624237 
	C693.503418,305.773956 690.651428,304.334290 687.911499,302.751801 
	C677.672913,296.838348 667.461243,296.436249 657.266968,302.900360 
	C652.205017,306.110046 647.043274,309.165283 642.030151,312.448303 
	C634.217163,317.564911 626.572815,316.734833 619.055786,311.958923 
	C614.557617,309.101044 610.145020,306.098999 605.796204,303.017487 
	C594.951965,295.333527 583.779846,294.271271 572.091492,301.022125 
	C568.487915,303.103485 564.816772,305.068756 561.159851,307.056549 
	C559.054688,308.200775 557.009949,308.998840 554.628113,307.406677 
	C545.378662,301.223907 534.627991,299.706238 524.059021,299.583527 
	C486.401825,299.146210 448.735962,299.364502 411.074280,299.531433 
	C406.461853,299.551849 405.030151,297.817017 405.679657,293.616272 
	C406.747101,286.712799 407.770233,279.822174 409.483856,273.014557 
	C416.958313,243.321701 434.611084,221.765808 462.037415,208.732117 
	C485.409851,197.624939 510.461029,197.687378 535.533508,200.702850 
	C554.669006,203.004303 573.048035,208.278976 590.594299,216.374084 
	C595.223206,218.509644 596.812927,217.723297 597.175476,212.690308 
	C597.641357,206.222321 597.523315,199.707809 597.540771,193.213028 
	C597.567139,183.418320 597.241272,182.995956 587.969543,179.462585 
	C571.119629,173.041229 553.923157,168.097122 535.914978,166.001740 
	C515.093628,163.579041 494.405365,163.127090 473.968506,168.555069 
	C428.642731,180.593491 397.415314,208.184631 381.861816,252.766388 
	C377.350342,265.697815 374.450439,279.045715 373.772156,292.763306 
	C373.519531,297.872009 371.655365,300.755798 366.270508,301.166718 
	C360.315399,301.621246 354.996826,304.129395 350.145203,307.439758 
	C346.905151,309.650513 343.402069,311.011322 339.712250,312.095245 
	C327.160919,315.782227 314.862396,315.437958 302.443115,310.949158 
	C294.810181,308.190338 286.865601,306.886688 278.449768,308.227661 
	C270.733795,309.457123 263.221283,312.014282 255.323502,312.058777 
	C231.162933,312.194916 207.002090,312.286041 182.841675,312.443451 
	C180.855392,312.456390 178.466705,311.655273 176.919128,314.644287 
	C180.465012,316.708099 183.959030,318.550476 187.257614,320.693665 
	C204.342484,331.794281 217.208832,347.129089 228.758881,363.500061 
	C247.882965,390.606506 269.965057,414.916260 295.077454,436.534973 
	C348.012238,482.105499 408.725281,509.981659 478.433228,517.901611 
	C504.336487,520.844604 529.988525,519.653564 555.496948,515.098877 
	C597.928467,507.522583 637.710083,492.546967 674.302368,469.784393 
	C716.359985,443.622009 751.680359,410.001038 781.127441,370.215118 
	C788.848450,359.783325 796.350342,349.172363 805.242493,339.696045 
	C814.152771,330.200439 823.608765,321.357819 835.713440,315.816437 
	C840.395142,313.673279 840.310486,311.535400 835.990784,308.917969 
	C833.144226,307.193176 830.173523,305.672913 827.330505,303.942627 
	C810.567261,293.740265 798.583679,278.734772 787.370178,263.178833 
	C762.561890,228.763718 734.185669,197.866745 699.536682,171.977966 
M401.527283,672.045593 
	C407.305542,672.045593 413.083801,672.045593 418.862061,672.045593 
	C418.854462,671.692078 418.846832,671.338501 418.839203,670.984985 
	C415.527588,670.984985 412.215942,670.984924 408.904297,670.984924 
	C405.711121,670.984924 402.517944,670.984985 399.324738,670.984985 
	C399.341858,671.278137 399.358948,671.571289 399.376068,671.864441 
	C399.871002,671.914917 400.365967,671.965393 401.527283,672.045593 
z"/>
<path fill="#111111" opacity="1.000000" stroke="none" 
	d="
M685.497803,430.531799 
	C649.201843,457.772339 609.757996,477.706482 565.745483,487.914459 
	C522.197998,498.014587 478.906616,496.615265 435.805481,484.655701 
	C388.817505,471.617615 348.123657,447.242889 310.995544,416.348328 
	C292.134827,400.654144 275.214233,382.967377 258.778625,364.765411 
	C247.027557,351.751404 233.793350,340.316803 218.802338,331.042908 
	C216.401474,329.557648 214.173477,327.788055 211.911301,326.089020 
	C211.578918,325.839386 211.501694,325.250000 211.327911,324.865356 
	C212.132492,323.186523 213.654648,323.542603 214.878922,323.511536 
	C223.538116,323.291656 232.199142,323.123810 240.860519,323.015411 
	C250.997955,322.888458 261.103577,323.319672 271.093567,320.464417 
	C282.884186,317.094543 294.395538,319.432220 305.904266,323.026367 
	C318.819092,327.059692 331.892639,326.580780 344.605255,321.703583 
	C347.784607,320.483826 350.520660,320.315277 353.667328,321.828583 
	C358.770142,324.282562 364.158051,326.094513 369.683899,327.389587 
	C372.525421,328.055481 373.675842,329.586395 373.958954,332.581360 
	C377.179535,366.648438 389.955566,396.410828 414.978210,420.159302 
	C436.654816,440.732147 462.627625,452.870300 492.312836,456.482361 
	C526.903870,460.691376 559.920044,454.811798 591.401245,439.949280 
	C597.752441,436.950775 601.330139,432.671692 600.666626,425.152740 
	C600.170532,419.531067 600.792847,413.819611 600.526550,408.166534 
	C600.189392,401.007294 597.602051,399.481720 591.265625,402.784790 
	C574.727600,411.405731 557.285767,417.272888 538.898254,420.251373 
	C511.679016,424.660400 485.055054,423.434875 459.852386,410.909271 
	C435.468201,398.790436 420.510651,378.632385 411.826202,353.405212 
	C409.454041,346.514374 407.670288,339.401459 407.018555,332.071808 
	C406.820618,329.845581 406.761078,328.222870 409.891266,328.237701 
	C446.214020,328.409882 482.537415,328.447083 518.860352,328.596466 
	C528.579468,328.636444 538.096680,327.352295 547.473328,324.894653 
	C555.606934,322.762787 562.994690,318.932587 570.116150,314.600555 
	C581.589355,307.621399 592.761414,306.469666 603.923218,315.357513 
	C607.820007,318.460388 612.090820,321.128693 616.352661,323.730499 
	C625.435486,329.275482 634.727417,329.775391 644.267639,324.662079 
	C649.138428,322.051483 653.644775,318.923920 658.118530,315.733734 
	C666.817261,309.530609 675.791748,308.466339 685.255554,313.945892 
	C688.136841,315.614105 691.197998,316.980316 694.030334,318.722870 
	C705.320374,325.668945 717.266357,326.487152 729.538330,322.206116 
	C737.695374,319.360535 745.921021,318.372009 754.531006,318.523926 
	C771.856873,318.829712 789.192139,318.610992 806.523499,318.608734 
	C808.487305,318.608490 810.451111,318.608704 812.385376,318.608704 
	C812.738770,321.419189 811.007751,322.017792 809.588318,322.707184 
	C785.303284,334.501831 765.934021,352.353821 748.408630,372.439850 
	C729.608032,393.987396 708.487549,413.005951 685.497803,430.531799 
z"/>
</svg>